<svg xmlns="http://www.w3.org/2000/svg" viewBox="0 0 1200 630" width="1300" height="682">
	<style>
		tspan { white-space:pre }
		.shp0 { fill: #8fd3f1 } 
		.shp1 { fill: #3f3d56 } 
		.shp2 { fill: #2f2e41 } 
		.shp3 { fill: #ffb8b8 } 
		.shp4 { fill: #6c63ff } 
		.shp5 { fill: #ffffff } 
		.shp6 { fill: #cccccc } 
		.shp7 { fill: #ff6584 } 
	</style>
	<path id="Layer" fill-rule="evenodd" class="shp0" d="M924.23 124.77C925.59 124.77 926.91 125.04 928.16 125.56C929.41 126.08 930.54 126.83 931.5 127.79C932.45 128.74 933.2 129.87 933.72 131.12C934.24 132.36 934.51 133.7 934.51 135.05L934.51 619.82C934.51 620.16 934.5 620.49 934.46 620.82C934.43 621.15 934.38 621.48 934.32 621.81C934.25 622.14 934.17 622.46 934.08 622.79C933.98 623.11 933.86 623.41 933.73 623.71C933.64 623.94 933.55 624.16 933.44 624.39C933.34 624.6 933.21 624.81 933.09 625.02C932.97 625.23 932.84 625.44 932.7 625.63C932.56 625.82 932.41 626.03 932.26 626.2C932.25 626.24 932.23 626.26 932.21 626.29C932.19 626.31 932.18 626.33 932.16 626.36C932.13 626.38 932.12 626.4 932.1 626.43C932.07 626.45 932.06 626.47 932.04 626.48C931.55 627.05 931.02 627.56 930.43 628.01C929.84 628.45 929.2 628.84 928.53 629.15C927.86 629.47 927.15 629.7 926.43 629.86C925.7 630.02 924.97 630.09 924.23 630.09L209.27 630.09C207.92 630.09 206.59 629.83 205.34 629.32C204.1 628.8 202.97 628.04 202.02 627.09C201.06 626.13 200.3 625 199.79 623.75C199.27 622.5 199 621.17 199 619.82L199 135.05C199 133.7 199.27 132.37 199.79 131.12C200.3 129.87 201.06 128.74 202.02 127.79C202.97 126.83 204.1 126.08 205.34 125.56C206.59 125.04 207.92 124.77 209.27 124.77L924.23 124.77ZM931.58 135.05C931.58 134.09 931.39 133.13 931.02 132.24C930.65 131.34 930.11 130.54 929.43 129.86C928.74 129.18 927.93 128.63 927.04 128.27C926.15 127.89 925.2 127.7 924.23 127.7L209.27 127.7C208.3 127.7 207.35 127.9 206.47 128.27C205.57 128.63 204.76 129.18 204.09 129.86C203.41 130.54 202.86 131.36 202.5 132.24C202.12 133.14 201.93 134.09 201.93 135.05L201.93 619.82C201.93 620.78 202.12 621.74 202.5 622.63C202.86 623.52 203.41 624.33 204.09 625.01C204.76 625.7 205.57 626.23 206.47 626.61C207.35 626.97 208.3 627.16 209.27 627.16L924.23 627.16C924.52 627.16 924.81 627.14 925.1 627.11C925.38 627.07 925.68 627.03 925.96 626.96C926.24 626.89 926.52 626.8 926.79 626.7C927.05 626.61 927.33 626.48 927.59 626.34C927.87 626.2 928.14 626.04 928.39 625.86C928.65 625.68 928.89 625.48 929.13 625.27C929.36 625.06 929.59 624.84 929.79 624.6C930 624.36 930.19 624.12 930.37 623.85C930.57 623.55 930.74 623.25 930.88 622.93C931.04 622.6 931.17 622.27 931.27 621.93C931.37 621.58 931.45 621.24 931.5 620.89C931.55 620.54 931.58 620.18 931.58 619.82L931.58 135.05Z" />
	<path id="Layer" class="shp0" d="M202.46 164.96L935.04 164.96L935.04 167.91L202.46 167.91L202.46 164.96Z" />
	<path id="Layer" class="shp1" d="M227.42 154.63C222.55 154.63 218.61 150.69 218.61 145.81C218.61 140.93 222.55 136.99 227.42 136.99C232.3 136.99 236.23 140.93 236.23 145.81C236.23 150.69 232.3 154.63 227.42 154.63Z" />
	<path id="Layer" class="shp1" d="M252.74 154.63C247.88 154.63 243.93 150.69 243.93 145.81C243.93 140.93 247.88 136.99 252.74 136.99C257.62 136.99 261.55 140.93 261.55 145.81C261.55 150.69 257.62 154.63 252.74 154.63Z" />
	<path id="Layer" class="shp1" d="M278.07 154.63C273.2 154.63 269.26 150.69 269.26 145.81C269.26 140.93 273.2 136.99 278.07 136.99C282.95 136.99 286.88 140.93 286.88 145.81C286.88 150.69 282.95 154.63 278.07 154.63Z" />
	<path id="Layer" class="shp2" d="M1022.09 236.05C1000.61 236.05 983.23 218.67 983.23 197.16C983.23 175.65 1000.61 158.27 1022.09 158.27C1043.59 158.27 1060.96 175.65 1060.96 197.16C1060.96 218.67 1043.59 236.05 1022.09 236.05Z" />
	<path id="Layer" class="shp3" d="M924.72 399.48C923.86 397.84 923.37 396.04 923.29 394.19C923.19 392.34 923.52 390.5 924.21 388.78C924.92 387.07 925.99 385.54 927.35 384.28C928.7 383.03 930.33 382.09 932.09 381.52L981.34 277.27L1003.88 293.08L948.38 390.59C949.12 393.61 948.73 396.81 947.28 399.57C945.83 402.32 943.41 404.45 940.5 405.55C937.59 406.65 934.37 406.64 931.46 405.52C928.55 404.4 926.16 402.25 924.72 399.48Z" />
	<path id="Layer" class="shp4" d="M966.93 291.11C966.82 290.73 966.73 290.32 966.71 289.91C966.68 289.51 966.69 289.1 966.75 288.7C966.8 288.3 966.9 287.89 967.04 287.52C967.18 287.14 967.36 286.78 967.59 286.43L982.89 262.4C984.59 258.6 987.74 255.61 991.64 254.12C995.52 252.62 999.86 252.74 1003.67 254.43C1007.48 256.12 1010.47 259.26 1011.98 263.14C1013.47 267.05 1013.38 271.37 1011.7 275.19L1003.98 302.72C1003.77 303.5 1003.38 304.23 1002.85 304.86C1002.32 305.48 1001.67 305.98 1000.93 306.33C1000.2 306.67 999.39 306.86 998.57 306.86C997.76 306.87 996.95 306.71 996.21 306.36L970.05 294.66C969.68 294.5 969.33 294.3 969 294.05C968.67 293.81 968.38 293.53 968.1 293.22C967.83 292.92 967.6 292.59 967.41 292.23C967.21 291.88 967.04 291.5 966.93 291.11Z" />
	<path id="Layer" class="shp3" d="M1090.86 409.82C1089.05 409.41 1087.37 408.59 1085.91 407.45C1084.46 406.31 1083.27 404.86 1082.44 403.21C1081.6 401.56 1081.13 399.74 1081.07 397.89C1081.01 396.04 1081.36 394.2 1082.09 392.51L1035.44 287.06L1062.13 280.33L1099.59 386.09C1102.37 387.51 1104.52 389.89 1105.66 392.8C1106.8 395.7 1106.83 398.92 1105.76 401.84C1104.68 404.76 1102.57 407.19 1099.82 408.66C1097.08 410.14 1093.89 410.55 1090.86 409.82Z" />
	<path id="Layer" class="shp3" d="M1103.57 600.96L1090 605.9L1064.5 555.89L1084.52 548.59L1103.57 600.96Z" />
	<path id="Layer" class="shp2" d="M1078.9 605.55L1105.07 596.02L1111.07 612.51L1068.42 628.04C1067.63 625.88 1067.28 623.58 1067.38 621.28C1067.48 618.98 1068.03 616.72 1069.01 614.63C1069.98 612.54 1071.35 610.66 1073.05 609.11C1074.75 607.55 1076.73 606.35 1078.9 605.55Z" />
	<path id="Layer" class="shp0" d="M1066.54 569.32L1014.84 478.8C1014.59 478.36 1014.4 477.91 1014.27 477.41C1014.14 476.93 1014.09 476.43 1014.1 475.93C1014.1 475.43 1014.17 474.92 1014.31 474.44C1014.44 473.96 1014.64 473.5 1014.9 473.06L1038.17 434.25C1038.73 433.33 1039.53 432.58 1040.49 432.09C1041.45 431.61 1042.52 431.41 1043.59 431.52C1044.66 431.62 1045.68 432.02 1046.52 432.68C1047.37 433.34 1048.02 434.23 1048.38 435.24L1092.39 557.19C1092.63 557.85 1092.74 558.54 1092.73 559.24C1092.72 559.95 1092.57 560.63 1092.31 561.28C1092.04 561.93 1091.65 562.52 1091.16 563.02C1090.68 563.53 1090.12 563.94 1089.48 564.25L1073.89 571.64C1073.7 571.72 1073.51 571.8 1073.31 571.87C1073.12 571.93 1072.92 571.99 1072.71 572.04C1072.51 572.09 1072.31 572.12 1072.09 572.14C1071.89 572.17 1071.68 572.18 1071.48 572.18C1070.98 572.18 1070.48 572.11 1070 571.98C1069.52 571.85 1069.05 571.66 1068.62 571.41C1068.18 571.16 1067.8 570.86 1067.44 570.5C1067.09 570.15 1066.79 569.75 1066.54 569.32Z" />
	<path id="Layer" class="shp3" d="M1018.56 239.66C1002.57 239.66 989.63 226.71 989.63 210.71C989.63 194.71 1002.57 181.77 1018.56 181.77C1034.56 181.77 1047.49 194.71 1047.49 210.71C1047.49 226.71 1034.56 239.66 1018.56 239.66Z" />
	<path id="Layer" class="shp4" d="M977.42 341.83C954.63 291.28 977.6 263.03 988.53 253.23C989.32 252.53 990.15 251.9 991.05 251.36C991.94 250.82 992.88 250.35 993.86 249.98C994.83 249.61 995.84 249.32 996.88 249.13C997.9 248.95 998.95 248.85 999.99 248.85L1040.74 248.85C1043.67 248.85 1046.55 249.59 1049.11 251.02C1051.66 252.45 1053.82 254.51 1055.35 256.99C1056.89 259.48 1057.76 262.32 1057.9 265.25C1058.03 268.18 1057.41 271.09 1056.1 273.71L1028.86 328.23L977.63 342.32L977.42 341.83Z" />
	<path id="Layer" class="shp4" d="M1037.03 305.95C1036.66 305.79 1036.31 305.59 1035.98 305.34C1035.65 305.1 1035.36 304.82 1035.09 304.52C1034.82 304.21 1034.58 303.88 1034.39 303.52C1034.19 303.17 1034.04 302.79 1033.92 302.4L1025.76 275.1C1023.99 271.32 1023.8 267 1025.21 263.07C1026.63 259.15 1029.54 255.95 1033.31 254.16C1037.09 252.39 1041.41 252.17 1045.34 253.57C1049.26 254.98 1052.47 257.88 1054.26 261.65L1070.04 285.48C1070.48 286.16 1070.79 286.93 1070.91 287.74C1071.04 288.54 1070.99 289.37 1070.77 290.16C1070.54 290.94 1070.16 291.67 1069.63 292.29C1069.11 292.92 1068.45 293.41 1067.71 293.75L1041.75 305.92C1041.39 306.08 1041 306.22 1040.61 306.3C1040.21 306.4 1039.81 306.45 1039.4 306.45C1039 306.46 1038.59 306.41 1038.18 306.33C1037.8 306.25 1037.41 306.12 1037.03 305.95Z" />
	<path id="Layer" class="shp3" d="M1010.36 614.63L995.92 614.62L989.04 558.9L1010.36 558.9L1010.36 614.63Z" />
	<path id="Layer" class="shp2" d="M985.61 610.5L1013.45 610.5L1013.45 628.04L968.07 628.04C968.07 625.73 968.53 623.46 969.41 621.32C970.28 619.2 971.58 617.26 973.2 615.63C974.84 614.01 976.77 612.71 978.89 611.83C981.02 610.95 983.3 610.5 985.61 610.5Z" />
	<path id="Layer" class="shp0" d="M1004.24 593.35L981.12 590.68C980.38 590.6 979.64 590.36 979 589.99C978.34 589.62 977.76 589.13 977.3 588.53C976.83 587.94 976.49 587.25 976.3 586.52C976.1 585.8 976.05 585.04 976.15 584.3L996.79 428.84C996.8 428.7 996.81 428.57 996.82 428.43C996.82 428.3 996.82 428.16 996.82 428.03C996.81 427.89 996.8 427.76 996.77 427.62C996.76 427.48 996.72 427.34 996.7 427.21L975.96 341.61C975.86 341.2 975.8 340.8 975.79 340.4C975.78 339.99 975.82 339.59 975.89 339.19C975.97 338.79 976.09 338.4 976.25 338.03C976.41 337.66 976.61 337.3 976.84 336.97C980.06 332.54 991.08 322.19 1023.86 322L1023.9 322C1024.44 322 1024.98 322.07 1025.5 322.23C1026.02 322.38 1026.51 322.62 1026.97 322.91C1027.43 323.21 1027.84 323.56 1028.2 323.97C1028.55 324.38 1028.84 324.84 1029.07 325.33L1033.45 334.96C1033.52 335.13 1033.61 335.31 1033.72 335.48C1033.83 335.64 1033.95 335.79 1034.06 335.95C1034.19 336.1 1034.32 336.24 1034.46 336.37C1034.61 336.5 1034.76 336.63 1034.92 336.73C1040.94 341 1070.09 364.93 1052.98 417.46C1036.15 469.09 1014.59 569.33 1010.45 588.89C1010.3 589.53 1010.07 590.13 1009.74 590.68C1009.4 591.23 1008.97 591.72 1008.47 592.12C1007.97 592.54 1007.41 592.85 1006.8 593.06C1006.2 593.28 1005.55 593.39 1004.91 593.38C1004.85 593.39 1004.79 593.38 1004.75 593.38C1004.69 593.38 1004.63 593.38 1004.57 593.38C1004.52 593.37 1004.46 593.37 1004.4 593.37C1004.36 593.36 1004.3 593.36 1004.24 593.35Z" />
	<path id="Layer" class="shp2" d="M1048.96 192.5C1047.32 193.63 1045.59 194.64 1043.8 195.51C1042.01 196.38 1040.15 197.11 1038.24 197.7C1036.35 198.29 1034.4 198.74 1032.43 199.03C1030.46 199.33 1028.47 199.47 1026.48 199.46C1027.18 199.95 1027.93 200.41 1028.69 200.82C1029.46 201.23 1030.23 201.61 1031.04 201.94C1031.85 202.27 1032.66 202.55 1033.5 202.8C1034.33 203.04 1035.18 203.24 1036.03 203.39C1033.37 203.96 1030.68 204.39 1027.98 204.69C1025.28 204.98 1022.55 205.14 1019.83 205.16C1017.11 205.17 1014.39 205.04 1011.7 204.79C1008.98 204.51 1006.29 204.11 1003.63 203.57C1003.03 203.48 1002.44 203.36 1001.86 203.21C1001.27 203.06 1000.7 202.9 1000.13 202.7C999.56 202.51 999 202.29 998.46 202.04C997.9 201.8 997.36 201.53 996.84 201.23C996.31 200.95 995.82 200.6 995.37 200.21C994.92 199.81 994.51 199.36 994.14 198.89C993.79 198.41 993.48 197.89 993.23 197.34C992.98 196.79 992.79 196.23 992.65 195.64C991.94 191.57 995.11 187.88 998.4 185.39C1000.91 183.52 1003.61 181.93 1006.48 180.66C1009.34 179.39 1012.33 178.44 1015.39 177.83C1018.47 177.2 1021.59 176.93 1024.72 177.02C1027.84 177.09 1030.96 177.51 1033.99 178.28C1037.97 179.3 1041.95 181.04 1044.54 184.24C1047.13 187.43 1047.89 192.36 1045.43 195.65L1048.96 192.5Z" />
	<path id="Layer" class="shp2" d="M1029.64 172.37C1026.34 171.27 1022.95 170.11 1020.32 167.81C1017.7 165.51 1016.04 161.75 1017.22 158.48C1018.35 155.32 1021.8 153.47 1025.16 153.22C1028.5 152.97 1031.79 154.01 1034.99 155.04C1033.54 152.84 1032.05 148.61 1030.74 144.14C1027.76 133.95 1040.19 124.64 1050.78 125.41C1051.09 125.43 1051.4 125.45 1051.68 125.5C1062.37 127.05 1067.9 131.13 1075.36 138.94C1084.7 148.71 1089.57 161.87 1092.84 174.98C1096.11 188.09 1098.02 201.58 1102.63 214.28C1107.22 226.98 1114.97 239.19 1126.82 245.66C1130.06 247.35 1133.5 248.61 1137.07 249.38C1140.65 250.14 1144.3 250.42 1147.95 250.2C1151.59 249.97 1155.19 249.25 1158.63 248.05C1162.08 246.85 1165.36 245.18 1168.35 243.09C1169.18 248.67 1168.67 254.37 1166.88 259.7C1165.09 265.05 1162.06 269.9 1158.05 273.86C1154.04 277.82 1149.15 280.78 1143.79 282.5C1138.42 284.21 1132.72 284.63 1127.16 283.73C1111.86 281.26 1099.6 268.93 1093.05 254.87C1086.5 240.81 1084.72 225.08 1083.07 209.65C1081.44 194.22 1079.76 178.5 1073.44 164.35C1070.87 158.61 1067.09 152.79 1060.35 151.87C1059.48 151.72 1058.59 151.72 1057.71 151.87C1056.83 152.02 1055.99 152.3 1055.2 152.73C1054.43 153.14 1053.72 153.68 1053.12 154.33C1052.51 154.98 1052.01 155.72 1051.65 156.53C1048.68 163.71 1058.83 169.79 1056.23 176.64C1055.95 177.3 1055.58 177.91 1055.12 178.46C1054.68 179.02 1054.13 179.5 1053.54 179.91C1052.96 180.32 1052.31 180.63 1051.64 180.86C1050.95 181.08 1050.25 181.2 1049.53 181.22C1044.62 181.54 1040.59 178.74 1036.8 176.02C1029.03 170.46 1029.64 172.37 1029.64 172.37Z" />
	<path id="Layer" class="shp2" d="M179.14 611.02C155.33 611.02 136.08 591.77 136.08 567.96C136.08 544.14 155.33 524.89 179.14 524.89C202.96 524.89 222.21 544.14 222.21 567.96C222.21 591.77 202.96 611.02 179.14 611.02Z" />
	<path id="Layer" class="shp2" d="M159.52 601.76L172.6 601.76L172.6 625.2L159.52 625.2L159.52 601.76Z" />
	<path id="Layer" class="shp2" d="M185.69 601.76L198.77 601.76L198.77 625.2L185.69 625.2L185.69 601.76Z" />
	<path id="Layer" class="shp2" d="M170.42 629.56C164.39 629.56 159.52 627.73 159.52 625.47C159.52 623.21 164.39 621.38 170.42 621.38C176.45 621.38 181.32 623.21 181.32 625.47C181.32 627.73 176.45 629.56 170.42 629.56Z" />
	<path id="Layer" class="shp2" d="M196.59 629.01C190.56 629.01 185.69 627.19 185.69 624.93C185.69 622.66 190.56 620.84 196.59 620.84C202.62 620.84 207.49 622.66 207.49 624.93C207.49 627.19 202.62 629.01 196.59 629.01Z" />
	<path id="Layer" class="shp5" d="M180.23 571.77C172.09 571.77 165.52 565.19 165.52 557.05C165.52 548.91 172.09 542.33 180.23 542.33C188.37 542.33 194.95 548.91 194.95 557.05C194.95 565.19 188.37 571.77 180.23 571.77Z" />
	<path id="Layer" class="shp1" d="M180.23 561.96C177.52 561.96 175.33 559.77 175.33 557.05C175.33 554.34 177.52 552.15 180.23 552.15C182.95 552.15 185.14 554.34 185.14 557.05C185.14 559.77 182.95 561.96 180.23 561.96Z" />
	<path id="Layer" class="shp6" d="M137.37 527.91C133.89 512.33 145.01 496.59 162.2 492.76C179.39 488.92 196.14 498.43 199.62 514.01C203.1 529.58 191.7 535.32 174.51 539.16C157.32 543 140.84 543.48 137.37 527.91Z" />
	<path id="Layer" class="shp2" d="M210.55 414.1C206.3 425.22 200.04 433.13 196.54 431.8C193.05 430.46 193.67 420.39 197.92 409.27C202.17 398.15 208.43 390.24 211.92 391.57C215.41 392.9 214.8 402.97 210.55 414.1Z" />
	<path id="Layer" class="shp2" d="M206.94 451.1C203.12 474.61 181.04 490.53 157.53 486.72C134.02 482.9 118.1 460.82 121.91 437.31C125.73 413.8 147.81 397.88 171.32 401.7C194.83 405.51 210.75 427.6 206.94 451.1Z" />
	<path id="Layer" class="shp2" d="M144.8 478.01L157.88 478.01L157.88 501.45L144.8 501.45L144.8 478.01Z" />
	<path id="Layer" class="shp2" d="M170.97 478.01L184.05 478.01L184.05 501.45L170.97 501.45L170.97 478.01Z" />
	<path id="Layer" class="shp2" d="M155.7 505.81C149.67 505.81 144.8 503.98 144.8 501.72C144.8 499.46 149.67 497.63 155.7 497.63C161.73 497.63 166.61 499.46 166.61 501.72C166.61 503.98 161.73 505.81 155.7 505.81Z" />
	<path id="Layer" class="shp2" d="M181.87 505.26C175.84 505.26 170.97 503.44 170.97 501.18C170.97 498.91 175.84 497.09 181.87 497.09C187.9 497.09 192.77 498.91 192.77 501.18C192.77 503.44 187.9 505.26 181.87 505.26Z" />
	<path id="Layer" class="shp5" d="M165.95 448.02C157.81 448.26 151.04 441.87 150.8 433.74C150.56 425.6 156.95 418.83 165.08 418.59C173.22 418.35 179.99 424.73 180.23 432.87C180.47 441.01 174.08 447.78 165.95 448.02Z" />
	<path id="Layer" class="shp1" d="M165.52 438.21C162.8 438.21 160.61 436.02 160.61 433.3C160.61 430.59 162.8 428.4 165.52 428.4C168.23 428.4 170.42 430.59 170.42 433.3C170.42 436.02 168.23 438.21 165.52 438.21Z" />
	<path id="Layer" class="shp4" d="M122.65 404.15C119.17 388.58 130.29 372.84 147.48 369.01C164.67 365.17 181.42 374.68 184.9 390.25C188.38 405.83 176.98 411.57 159.79 415.41C142.6 419.25 126.13 419.73 122.65 404.15Z" />
	<path id="Layer" class="shp2" d="M135.37 433.45C133.77 436.83 123.78 435.43 113.02 430.33C102.26 425.23 94.86 418.37 96.46 415C98.06 411.62 108.05 413.01 118.81 418.11C129.57 423.22 136.98 430.07 135.37 433.45Z" />
	<path id="Layer" class="shp5" d="M143.27 459.74C143.27 463.96 154.12 472.28 166.17 472.28C178.21 472.28 189.5 460.41 189.5 456.2C189.5 451.98 178.21 457.02 166.17 457.02C154.12 457.02 143.27 455.53 143.27 459.74Z" />
	<path id="Layer" class="shp7" d="M247.54 434.98L215.83 441.16C215.58 441.21 215.32 441.24 215.06 441.23C214.8 441.22 214.54 441.18 214.29 441.12C214.03 441.05 213.79 440.95 213.56 440.83C213.33 440.71 213.11 440.56 212.91 440.39C212.71 440.22 212.53 440.02 212.38 439.81C212.22 439.6 212.09 439.37 211.98 439.12C211.88 438.88 211.8 438.62 211.75 438.36C211.7 438.1 211.69 437.84 211.7 437.57C211.83 434.34 211.78 431.09 211.53 427.86C211.29 424.64 210.85 421.42 210.23 418.24C209.61 415.07 208.81 411.93 207.82 408.84C206.83 405.76 205.66 402.73 204.32 399.79C204.21 399.54 204.13 399.29 204.07 399.03C204.02 398.77 204 398.51 204 398.24C204.01 397.98 204.04 397.71 204.11 397.46C204.17 397.2 204.27 396.95 204.39 396.71C204.51 396.48 204.65 396.26 204.82 396.06C204.99 395.87 205.18 395.69 205.39 395.53C205.6 395.37 205.82 395.24 206.06 395.13C206.3 395.03 206.55 394.95 206.8 394.9L238.51 388.71C238.91 388.64 239.32 388.63 239.72 388.69C240.13 388.76 240.52 388.9 240.88 389.1C241.23 389.3 241.55 389.56 241.82 389.87C242.08 390.18 242.29 390.54 242.43 390.92C243.6 394.17 244.65 397.47 245.57 400.8C246.49 404.13 247.28 407.49 247.94 410.88C248.6 414.27 249.13 417.69 249.54 421.12C249.94 424.55 250.21 428 250.35 431.45C250.36 431.86 250.3 432.27 250.17 432.66C250.04 433.05 249.84 433.41 249.59 433.73C249.33 434.05 249.02 434.32 248.67 434.53C248.32 434.75 247.94 434.9 247.54 434.98Z" />
	<path id="Layer" class="shp6" d="M108.54 463.98L76.83 470.16C76.58 470.21 76.32 470.24 76.06 470.23C75.8 470.22 75.54 470.18 75.29 470.12C75.03 470.05 74.79 469.95 74.56 469.83C74.33 469.71 74.11 469.56 73.91 469.39C73.71 469.22 73.53 469.02 73.38 468.81C73.22 468.6 73.09 468.37 72.98 468.12C72.88 467.88 72.8 467.62 72.75 467.36C72.7 467.1 72.69 466.84 72.7 466.57C72.83 463.34 72.78 460.09 72.53 456.86C72.29 453.64 71.85 450.42 71.23 447.24C70.61 444.07 69.81 440.93 68.82 437.84C67.83 434.76 66.66 431.73 65.32 428.79C65.21 428.54 65.13 428.29 65.07 428.03C65.02 427.77 65 427.51 65 427.24C65.01 426.98 65.04 426.71 65.11 426.46C65.17 426.2 65.27 425.95 65.39 425.71C65.51 425.48 65.65 425.26 65.82 425.06C65.99 424.87 66.18 424.69 66.39 424.53C66.6 424.37 66.82 424.24 67.06 424.13C67.3 424.03 67.55 423.95 67.8 423.9L99.51 417.71C99.91 417.64 100.32 417.63 100.72 417.69C101.13 417.76 101.52 417.9 101.88 418.1C102.23 418.3 102.55 418.56 102.82 418.87C103.08 419.18 103.29 419.54 103.43 419.92C104.6 423.17 105.65 426.47 106.57 429.8C107.49 433.13 108.28 436.49 108.94 439.88C109.6 443.27 110.13 446.69 110.54 450.12C110.94 453.55 111.21 457 111.35 460.45C111.36 460.86 111.3 461.27 111.17 461.66C111.04 462.05 110.84 462.41 110.59 462.73C110.33 463.05 110.02 463.32 109.67 463.53C109.32 463.75 108.94 463.9 108.54 463.98Z" />
</svg>