<svg xmlns="http://www.w3.org/2000/svg" viewBox="0 0 798 742" width="500" height="465">
	<style>
		tspan { white-space:pre }
		.shp0 { fill: #e6e6e6 } 
		.shp1 { fill: #3f3d56 } 
		.shp2 { fill: #ffffff } 
		.shp3 { fill: #2f2e41 } 
		.shp4 { fill: #ffb8b8 } 
		.shp5 { fill: #d0cde1 } 
	</style>
	<path id="Layer" class="shp0" d="M398.75 741.62C178.24 741.62 0 733.57 0 723.62C0 713.66 178.24 705.62 398.75 705.62C619.26 705.62 797.5 713.66 797.5 723.62C797.5 733.57 619.26 741.62 398.75 741.62Z" />
	<path id="Layer" class="shp1" d="M428 172.95L424 172.95L424 63.4C424 55.08 422.36 46.83 419.18 39.14C415.99 31.45 411.32 24.46 405.43 18.57C399.54 12.68 392.55 8.01 384.86 4.83C377.17 1.64 368.93 0 360.6 0L128.51 0C120.19 0 111.94 1.64 104.25 4.83C96.56 8.01 89.57 12.68 83.68 18.57C77.79 24.46 73.12 31.45 69.94 39.14C66.75 46.83 65.11 55.08 65.11 63.4L65.11 664.38C65.11 672.7 66.75 680.95 69.94 688.64C73.12 696.33 77.79 703.32 83.68 709.21C89.57 715.1 96.56 719.77 104.25 722.95C111.94 726.14 120.19 727.78 128.51 727.78L360.6 727.78C368.93 727.78 377.17 726.14 384.86 722.95C392.55 719.77 399.54 715.1 405.43 709.21C411.32 703.32 415.99 696.33 419.18 688.64C422.36 680.95 424 672.7 424 664.38L424 250.92L428 250.92L428 172.95Z" />
	<path id="Layer" class="shp2" d="M363.16 16.49L332.86 16.49C334.26 19.91 334.79 23.62 334.41 27.29C334.03 30.96 332.76 34.48 330.7 37.54C328.65 40.6 325.87 43.11 322.61 44.84C319.36 46.58 315.72 47.49 312.04 47.49L179.08 47.49C175.39 47.49 171.75 46.58 168.5 44.84C165.24 43.11 162.46 40.6 160.41 37.54C158.35 34.48 157.08 30.96 156.7 27.29C156.32 23.62 156.86 19.91 158.25 16.49L129.95 16.49C123.74 16.49 117.58 17.72 111.83 20.1C106.09 22.48 100.87 25.97 96.47 30.36C92.08 34.76 88.59 39.98 86.21 45.72C83.83 51.47 82.61 57.62 82.61 63.84L82.61 663.94C82.61 670.15 83.83 676.31 86.21 682.05C88.59 687.8 92.08 693.02 96.47 697.42C100.87 701.81 106.09 705.3 111.83 707.68C117.58 710.06 123.74 711.28 129.95 711.28L363.16 711.28C369.38 711.28 375.53 710.06 381.28 707.68C387.02 705.3 392.24 701.81 396.64 697.42C401.03 693.02 404.52 687.8 406.9 682.05C409.28 676.31 410.51 670.15 410.51 663.94L410.51 63.84C410.51 57.62 409.28 51.47 406.9 45.72C404.52 39.98 401.03 34.76 396.64 30.36C392.24 25.97 387.02 22.48 381.28 20.1C375.53 17.72 369.38 16.49 363.16 16.49L363.16 16.49Z" />
	<path id="Layer" class="shp3" d="M658.99 330.69C642.15 330.69 628.54 317.08 628.54 300.24C628.54 283.4 642.15 269.79 658.99 269.79C675.83 269.79 689.44 283.4 689.44 300.24C689.44 317.08 675.83 330.69 658.99 330.69Z" />
	<path id="Layer" class="shp4" d="M675.02 320.51C675.02 320.51 674.56 339.31 676.39 339.77C678.23 340.23 651.18 347.56 651.18 347.56L648.43 321.89L675.02 320.51Z" />
	<path id="Layer" class="shp4" d="M461.39 480.96C461.39 480.96 441.22 480.96 440.76 478.67C440.3 476.38 436.18 497.47 436.18 497.47L444.43 500.22C444.43 500.22 460.02 493.34 461.39 493.34C462.77 493.34 461.39 480.96 461.39 480.96Z" />
	<path id="Layer" class="shp3" d="M439.39 489.21C439.39 489.21 443.05 476.84 447.64 476.38C447.64 476.38 432.05 466.29 431.59 463.08C431.14 459.88 425.63 451.62 423.34 454.37C421.05 457.12 421.05 500.68 425.18 505.26C429.3 509.84 447.64 498.82 447.64 498.82C447.64 498.82 436.18 493.8 439.39 489.21Z" />
	<path id="Layer" class="shp4" d="M688.31 664.79L691.98 684.5L675.02 687.26L675.02 664.79L688.31 664.79L688.31 664.79Z" />
	<path id="Layer" class="shp3" d="M688.31 682.21C688.31 682.21 691.06 673.5 692.9 674.88C694.73 676.25 697.48 684.96 697.02 687.26C696.57 689.55 693.36 707.43 694.73 710.64C696.11 713.84 687.86 730.35 677.31 728.97C666.77 727.6 667.68 718.43 667.68 718.43L671.35 704.22L672.73 681.75C672.73 681.75 684.65 679.92 688.31 682.21Z" />
	<path id="Layer" class="shp3" d="M669.64 280.79C662.67 280.79 657.04 275.16 657.04 268.19C657.04 261.23 662.67 255.59 669.64 255.59C676.61 255.59 682.24 261.23 682.24 268.19C682.24 275.16 676.61 280.79 669.64 280.79Z" />
	<path id="Layer" class="shp3" d="M686.44 261.37C686.44 259.82 686.15 258.29 685.6 256.85C685.05 255.41 684.23 254.08 683.2 252.94C682.17 251.79 680.93 250.84 679.56 250.14C678.18 249.44 676.69 249 675.15 248.84C675.26 248.83 675.37 248.82 675.48 248.81C675.59 248.8 675.7 248.79 675.81 248.79C675.92 248.78 676.03 248.78 676.14 248.77C676.24 248.77 676.35 248.77 676.46 248.77C679.81 248.77 683.01 250.1 685.37 252.46C687.74 254.82 689.06 258.03 689.06 261.37C689.06 264.71 687.74 267.92 685.37 270.28C683.01 272.64 679.81 273.97 676.46 273.97C676.35 273.97 676.24 273.97 676.14 273.96C676.03 273.96 675.92 273.96 675.81 273.95C675.7 273.95 675.59 273.94 675.48 273.93C675.37 273.92 675.26 273.91 675.15 273.9C676.69 273.74 678.18 273.3 679.56 272.6C680.93 271.9 682.17 270.95 683.2 269.8C684.23 268.65 685.05 267.33 685.6 265.89C686.15 264.44 686.44 262.91 686.44 261.37Z" />
	<path id="Layer" class="shp4" d="M658.97 333.35C648.33 333.35 639.72 324.74 639.72 314.1C639.72 303.45 648.33 294.84 658.97 294.84C669.62 294.84 678.23 303.45 678.23 314.1C678.23 324.74 669.62 333.35 658.97 333.35Z" />
	<path id="Layer" class="shp3" d="M697.02 447.96C697.02 447.96 696.11 470.88 692.44 482.8C688.77 494.72 675.55 579.6 678.3 586.02C681.05 592.44 695.19 663.42 691.98 667.54C688.77 671.67 673.64 670.29 673.64 670.29L653.09 584.19C653.09 584.19 657.14 489.21 623.22 486.92C589.29 484.63 533.82 483.26 533.82 483.26C533.82 483.26 498.07 493.8 482.02 493.34C465.98 492.88 456.81 497.47 456.81 497.47L454.06 478.67L525.11 463.08C525.11 463.08 590.21 440.62 625.97 446.58C661.72 452.54 697.02 447.96 697.02 447.96Z" />
	<path id="Layer" class="shp5" d="M671.35 333.81C671.35 333.81 676.85 330.6 678.23 333.81C679.6 337.02 689.23 339.77 692.9 337.02C696.57 334.27 705.73 337.93 705.73 337.93L715.82 367.73C715.82 367.73 710.78 393.4 706.19 407.61C701.61 421.83 699.77 451.17 701.61 453.92C703.44 456.67 664.93 467.67 646.14 460.79C627.34 453.92 623.22 446.12 623.22 446.12C623.22 446.12 643.85 416.78 636.97 403.03C630.09 389.28 635.59 373.69 635.59 373.69L632.84 358.1L648.43 349.39C648.43 349.39 649.35 341.14 653.01 341.14C656.68 341.14 671.35 333.81 671.35 333.81Z" />
	<path id="Layer" class="shp5" d="M639.72 358.56L632.84 358.56C631.89 359.45 631.06 360.46 630.36 361.56C629.67 362.65 629.11 363.84 628.71 365.08C628.31 366.31 628.07 367.6 628 368.9C627.92 370.19 628.01 371.5 628.26 372.77C630.09 381.48 638.36 410.36 638.36 410.36L645.22 392.49L639.72 358.56Z" />
	<path id="Layer" class="shp4" d="M619.97 432.18C619.97 432.18 606.26 447.04 616.34 454.83C626.43 462.63 628.91 436.95 628.91 436.95L619.97 432.18Z" />
	<path id="Layer" class="shp5" d="M639.72 401.2L636.51 414.03L631.01 424.12C631.01 424.12 612.21 436.5 612.21 441.08C612.21 441.08 620.47 430.54 631.01 441.08L640.41 418.39L639.72 401.2Z" />
	<path id="Layer" class="shp3" d="M655.45 306.39C643.83 306.39 634.45 300.75 634.45 293.79C634.45 286.82 643.83 281.19 655.45 281.19C667.06 281.19 676.44 286.82 676.44 293.79C676.44 300.75 667.06 306.39 655.45 306.39Z" />
	<path id="Layer" class="shp4" d="M697.02 294.84C697.02 294.84 682.35 286.59 676.39 292.55C670.43 298.51 694.27 307.68 694.27 307.68L697.02 294.84Z" />
	<path id="Layer" class="shp5" d="M702.52 343.23L705.73 340.93C705.73 340.93 709.4 335.43 712.61 337.27C715.82 339.1 734.61 330.39 734.61 330.39C734.61 330.39 727.74 333.6 727.74 328.1C727.74 322.6 726.82 323.51 722.24 323.51C717.65 323.51 717.65 325.81 715.82 322.6C713.99 319.39 714.9 317.55 711.69 319.39C708.48 321.22 704.82 319.85 703.9 318.47C702.98 317.1 686.48 314.8 686.48 314.8C686.48 314.8 692.9 296.01 694.27 294.63C695.65 293.26 730.95 308.84 730.95 308.84C730.95 308.84 775.42 321.22 763.95 335.43C752.49 349.64 711.24 371.19 711.24 371.19L702.52 343.23Z" />
</svg>